<svg width="22" height="22" viewBox="0 0 22 22" fill="none" xmlns="http://www.w3.org/2000/svg">
<path d="M4.84776 19.25H2.20352C1.85288 19.25 1.51659 19.1051 1.26865 18.8473C1.0207 18.5894 0.881409 18.2397 0.881409 17.875V4.125C0.881409 3.76033 1.0207 3.41059 1.26865 3.15273C1.51659 2.89487 1.85288 2.75 2.20352 2.75H4.84776C5.19838 2.75 5.53468 2.89487 5.78262 3.15273C6.03056 3.41059 6.16987 3.76033 6.16987 4.125V17.875C6.16987 18.2397 6.03056 18.5894 5.78262 18.8473C5.53468 19.1051 5.19838 19.25 4.84776 19.25ZM2.20352 3.66667C2.08664 3.66667 1.97455 3.71496 1.8919 3.80091C1.80925 3.88686 1.76282 4.00344 1.76282 4.125V17.875C1.76282 17.9966 1.80925 18.1132 1.8919 18.1991C1.97455 18.285 2.08664 18.3333 2.20352 18.3333H4.84776C4.96463 18.3333 5.07675 18.285 5.15938 18.1991C5.24201 18.1132 5.28846 17.9966 5.28846 17.875V4.125C5.28846 4.00344 5.24201 3.88686 5.15938 3.80091C5.07675 3.71496 4.96463 3.66667 4.84776 3.66667H2.20352Z" fill="white"/>
<path d="M4.40705 6.41667H2.64423C2.52734 6.41667 2.41525 6.36836 2.3326 6.28242C2.24995 6.19648 2.20352 6.07988 2.20352 5.95833C2.20352 5.83678 2.24995 5.72018 2.3326 5.63425C2.41525 5.54831 2.52734 5.5 2.64423 5.5H4.40705C4.52392 5.5 4.63604 5.54831 4.71867 5.63425C4.8013 5.72018 4.84775 5.83678 4.84775 5.95833C4.84775 6.07988 4.8013 6.19648 4.71867 6.28242C4.63604 6.36836 4.52392 6.41667 4.40705 6.41667Z" fill="white"/>
<path d="M4.40705 16.4999H2.64423C2.52734 16.4999 2.41525 16.4516 2.3326 16.3657C2.24995 16.2797 2.20352 16.1631 2.20352 16.0416C2.20352 15.92 2.24995 15.8034 2.3326 15.7175C2.41525 15.6316 2.52734 15.5833 2.64423 15.5833H4.40705C4.52392 15.5833 4.63604 15.6316 4.71867 15.7175C4.8013 15.8034 4.84775 15.92 4.84775 16.0416C4.84775 16.1631 4.8013 16.2797 4.71867 16.3657C4.63604 16.4516 4.52392 16.4999 4.40705 16.4999Z" fill="white"/>
<path d="M10.5769 19.25H7.93268C7.58206 19.25 7.24575 19.1051 6.99781 18.8473C6.74987 18.5894 6.61057 18.2397 6.61057 17.875V4.125C6.61057 3.76033 6.74987 3.41059 6.99781 3.15273C7.24575 2.89487 7.58206 2.75 7.93268 2.75H10.5769C10.9275 2.75 11.2638 2.89487 11.5118 3.15273C11.7597 3.41059 11.899 3.76033 11.899 4.125V17.875C11.899 18.2397 11.7597 18.5894 11.5118 18.8473C11.2638 19.1051 10.9275 19.25 10.5769 19.25ZM7.93268 3.66667C7.81581 3.66667 7.70369 3.71496 7.62106 3.80091C7.53843 3.88686 7.49198 4.00344 7.49198 4.125V17.875C7.49198 17.9966 7.53843 18.1132 7.62106 18.1991C7.70369 18.285 7.81581 18.3333 7.93268 18.3333H10.5769C10.6938 18.3333 10.8059 18.285 10.8885 18.1991C10.9712 18.1132 11.0176 17.9966 11.0176 17.875V4.125C11.0176 4.00344 10.9712 3.88686 10.8885 3.80091C10.8059 3.71496 10.6938 3.66667 10.5769 3.66667H7.93268Z" fill="white"/>
<path d="M10.1362 6.41667H8.37338C8.25651 6.41667 8.14439 6.36836 8.06176 6.28242C7.97913 6.19648 7.93268 6.07988 7.93268 5.95833C7.93268 5.83678 7.97913 5.72018 8.06176 5.63425C8.14439 5.54831 8.25651 5.5 8.37338 5.5H10.1362C10.2531 5.5 10.3652 5.54831 10.4478 5.63425C10.5305 5.72018 10.5769 5.83678 10.5769 5.95833C10.5769 6.07988 10.5305 6.19648 10.4478 6.28242C10.3652 6.36836 10.2531 6.41667 10.1362 6.41667Z" fill="white"/>
<path d="M10.1362 16.4999H8.37338C8.25651 16.4999 8.14439 16.4516 8.06176 16.3657C7.97913 16.2797 7.93268 16.1631 7.93268 16.0416C7.93268 15.92 7.97913 15.8034 8.06176 15.7175C8.14439 15.6316 8.25651 15.5833 8.37338 15.5833H10.1362C10.2531 15.5833 10.3652 15.6316 10.4478 15.7175C10.5305 15.8034 10.5769 15.92 10.5769 16.0416C10.5769 16.1631 10.5305 16.2797 10.4478 16.3657C10.3652 16.4516 10.2531 16.4999 10.1362 16.4999Z" fill="white"/>
<path d="M16.8349 19.25C16.5443 19.2493 16.262 19.149 16.0317 18.9647C15.8014 18.7803 15.636 18.5223 15.5609 18.2303L12.1379 4.95004C12.0472 4.59781 12.0947 4.22256 12.27 3.90677C12.4453 3.59099 12.734 3.36054 13.0726 3.26613L15.6265 2.55433C15.9652 2.46098 16.3257 2.51082 16.6291 2.69297C16.9326 2.87511 17.1544 3.17477 17.2461 3.52646L20.6691 16.8071C20.7598 17.1594 20.7123 17.5346 20.537 17.8504C20.3617 18.1662 20.073 18.3966 19.7343 18.491L17.1787 19.2042C17.0665 19.235 16.9509 19.2504 16.8349 19.25ZM15.9685 3.42333C15.9301 3.42336 15.8919 3.4286 15.8548 3.43892L13.3009 4.15071C13.245 4.16625 13.1925 4.19311 13.1465 4.22976C13.1005 4.26641 13.0619 4.31212 13.033 4.36429C13.0038 4.41622 12.9848 4.47371 12.9772 4.53337C12.9697 4.59305 12.9736 4.65368 12.9889 4.71171L16.4105 17.9933C16.4255 18.0515 16.4514 18.106 16.4866 18.1537C16.5219 18.2015 16.5658 18.2415 16.616 18.2716C16.6661 18.3017 16.7214 18.3212 16.7788 18.3291C16.8362 18.3369 16.8945 18.3329 16.9504 18.3173L19.5065 17.606C19.5625 17.5904 19.6149 17.5635 19.6609 17.5268C19.7068 17.4902 19.7454 17.4444 19.7743 17.3922C19.8032 17.34 19.822 17.2824 19.8295 17.2227C19.837 17.1629 19.8332 17.1022 19.8181 17.0441L16.3942 3.76296C16.3691 3.66551 16.3138 3.57941 16.2368 3.518C16.1598 3.4566 16.0655 3.42332 15.9685 3.42333Z" fill="white"/>
<path d="M14.296 6.70407C14.1892 6.70388 14.086 6.66332 14.0058 6.58994C13.9255 6.51656 13.8736 6.41536 13.8597 6.30513C13.8459 6.19495 13.871 6.08326 13.9304 5.99086C13.9899 5.8985 14.0795 5.83172 14.1828 5.80298L15.8857 5.32815C15.9417 5.31225 16.0001 5.30808 16.0577 5.31573C16.1153 5.32343 16.1708 5.34286 16.2212 5.37298C16.2715 5.40304 16.3156 5.44315 16.351 5.49104C16.3864 5.53889 16.4123 5.59353 16.4273 5.65187C16.4423 5.71017 16.4461 5.77099 16.4384 5.83085C16.4308 5.89071 16.4118 5.94837 16.3827 6.00057C16.3535 6.05278 16.3147 6.09847 16.2685 6.13505C16.2223 6.17158 16.1697 6.1983 16.1135 6.21365L14.4111 6.68803C14.3736 6.69875 14.3349 6.70416 14.296 6.70407Z" fill="white"/>
<path d="M16.8059 16.4436C16.6989 16.4435 16.5957 16.4031 16.5153 16.3297C16.435 16.2564 16.383 16.1551 16.3691 16.0449C16.3552 15.9347 16.3803 15.8229 16.4398 15.7305C16.4992 15.6381 16.5889 15.5712 16.6922 15.5425L18.3946 15.0681C18.5075 15.0366 18.6278 15.0531 18.7291 15.1139C18.8303 15.1746 18.9042 15.2747 18.9345 15.3922C18.9647 15.5096 18.9489 15.6347 18.8905 15.74C18.832 15.8453 18.7358 15.9221 18.6229 15.9536L16.9204 16.428C16.8831 16.4383 16.8446 16.4436 16.8059 16.4436Z" fill="white"/>
</svg>
