<svg width="512" height="512" viewBox="0 0 512 512" fill="none" xmlns="http://www.w3.org/2000/svg">
<path d="M256 160C272 96.8401 332.43 64.5901 464 64.0001C466.103 63.9922 468.188 64.4006 470.132 65.2019C472.077 66.0032 473.844 67.1814 475.331 68.6687C476.819 70.156 477.997 71.923 478.798 73.8678C479.599 75.8126 480.008 77.8967 480 80.0001V368C480 372.244 478.314 376.313 475.314 379.314C472.313 382.314 468.243 384 464 384C336 384 286.55 409.81 256 448M256 160C240 96.8401 179.57 64.5901 48 64.0001C45.8966 63.9922 43.8125 64.4006 41.8677 65.2019C39.9229 66.0032 38.1559 67.1814 36.6686 68.6687C35.1813 70.156 34.003 71.923 33.2018 73.8678C32.4005 75.8126 31.9921 77.8967 32 80.0001V366.07C32 375.95 38.12 384 48 384C176 384 225.63 410 256 448M256 160V448" stroke="white" stroke-width="32" stroke-linecap="round" stroke-linejoin="round"/>
</svg>
