<svg width="22" height="22" viewBox="0 0 22 22" fill="none" xmlns="http://www.w3.org/2000/svg">
<g clip-path="url(#clip0_2060_230)">
<path d="M5.34776 19.25H2.70352C2.35288 19.25 2.01659 19.1051 1.76865 18.8473C1.5207 18.5894 1.38141 18.2397 1.38141 17.875V4.125C1.38141 3.76033 1.5207 3.41059 1.76865 3.15273C2.01659 2.89487 2.35288 2.75 2.70352 2.75H5.34776C5.69838 2.75 6.03468 2.89487 6.28262 3.15273C6.53056 3.41059 6.66987 3.76033 6.66987 4.125V17.875C6.66987 18.2397 6.53056 18.5894 6.28262 18.8473C6.03468 19.1051 5.69838 19.25 5.34776 19.25ZM2.70352 3.66667C2.58664 3.66667 2.47455 3.71496 2.3919 3.80091C2.30925 3.88686 2.26282 4.00344 2.26282 4.125V17.875C2.26282 17.9966 2.30925 18.1132 2.3919 18.1991C2.47455 18.285 2.58664 18.3333 2.70352 18.3333H5.34776C5.46463 18.3333 5.57675 18.285 5.65938 18.1991C5.74201 18.1132 5.78846 17.9966 5.78846 17.875V4.125C5.78846 4.00344 5.74201 3.88686 5.65938 3.80091C5.57675 3.71496 5.46463 3.66667 5.34776 3.66667H2.70352Z" fill="#E9E9E9"/>
<path d="M4.90705 6.41667H3.14423C3.02734 6.41667 2.91525 6.36836 2.8326 6.28242C2.74995 6.19648 2.70352 6.07988 2.70352 5.95833C2.70352 5.83678 2.74995 5.72018 2.8326 5.63425C2.91525 5.54831 3.02734 5.5 3.14423 5.5H4.90705C5.02392 5.5 5.13604 5.54831 5.21867 5.63425C5.3013 5.72018 5.34775 5.83678 5.34775 5.95833C5.34775 6.07988 5.3013 6.19648 5.21867 6.28242C5.13604 6.36836 5.02392 6.41667 4.90705 6.41667Z" fill="#E9E9E9"/>
<path d="M4.90705 16.4999H3.14423C3.02734 16.4999 2.91525 16.4516 2.8326 16.3657C2.74995 16.2797 2.70352 16.1631 2.70352 16.0416C2.70352 15.92 2.74995 15.8034 2.8326 15.7175C2.91525 15.6316 3.02734 15.5833 3.14423 15.5833H4.90705C5.02392 15.5833 5.13604 15.6316 5.21867 15.7175C5.3013 15.8034 5.34775 15.92 5.34775 16.0416C5.34775 16.1631 5.3013 16.2797 5.21867 16.3657C5.13604 16.4516 5.02392 16.4999 4.90705 16.4999Z" fill="#E9E9E9"/>
<path d="M11.0769 19.25H8.4327C8.08207 19.25 7.74577 19.1051 7.49783 18.8473C7.24989 18.5894 7.11058 18.2397 7.11058 17.875V4.125C7.11058 3.76033 7.24989 3.41059 7.49783 3.15273C7.74577 2.89487 8.08207 2.75 8.4327 2.75H11.0769C11.4276 2.75 11.7639 2.89487 12.0118 3.15273C12.2597 3.41059 12.399 3.76033 12.399 4.125V17.875C12.399 18.2397 12.2597 18.5894 12.0118 18.8473C11.7639 19.1051 11.4276 19.25 11.0769 19.25ZM8.4327 3.66667C8.31582 3.66667 8.20371 3.71496 8.12107 3.80091C8.03844 3.88686 7.99199 4.00344 7.99199 4.125V17.875C7.99199 17.9966 8.03844 18.1132 8.12107 18.1991C8.20371 18.285 8.31582 18.3333 8.4327 18.3333H11.0769C11.1938 18.3333 11.3059 18.285 11.3885 18.1991C11.4712 18.1132 11.5176 17.9966 11.5176 17.875V4.125C11.5176 4.00344 11.4712 3.88686 11.3885 3.80091C11.3059 3.71496 11.1938 3.66667 11.0769 3.66667H8.4327Z" fill="#E9E9E9"/>
<path d="M10.6362 6.41667H8.8734C8.75652 6.41667 8.64441 6.36836 8.56178 6.28242C8.47914 6.19648 8.43269 6.07988 8.43269 5.95833C8.43269 5.83678 8.47914 5.72018 8.56178 5.63425C8.64441 5.54831 8.75652 5.5 8.8734 5.5H10.6362C10.7531 5.5 10.8652 5.54831 10.9478 5.63425C11.0305 5.72018 11.0769 5.83678 11.0769 5.95833C11.0769 6.07988 11.0305 6.19648 10.9478 6.28242C10.8652 6.36836 10.7531 6.41667 10.6362 6.41667Z" fill="#E9E9E9"/>
<path d="M10.6362 16.4999H8.8734C8.75652 16.4999 8.64441 16.4516 8.56178 16.3657C8.47914 16.2797 8.43269 16.1631 8.43269 16.0416C8.43269 15.92 8.47914 15.8034 8.56178 15.7175C8.64441 15.6316 8.75652 15.5833 8.8734 15.5833H10.6362C10.7531 15.5833 10.8652 15.6316 10.9478 15.7175C11.0305 15.8034 11.0769 15.92 11.0769 16.0416C11.0769 16.1631 11.0305 16.2797 10.9478 16.3657C10.8652 16.4516 10.7531 16.4999 10.6362 16.4999Z" fill="#E9E9E9"/>
<path d="M17.3349 19.25C17.0443 19.2493 16.762 19.149 16.5317 18.9647C16.3014 18.7803 16.1359 18.5223 16.0609 18.2303L12.6379 4.95004C12.5472 4.59781 12.5947 4.22256 12.77 3.90677C12.9452 3.59099 13.234 3.36054 13.5726 3.26613L16.1265 2.55433C16.4652 2.46098 16.8257 2.51082 17.1291 2.69297C17.4326 2.87511 17.6544 3.17477 17.7461 3.52646L21.1691 16.8071C21.2598 17.1594 21.2123 17.5346 21.037 17.8504C20.8617 18.1662 20.573 18.3966 20.2343 18.491L17.6787 19.2042C17.5665 19.235 17.4509 19.2504 17.3349 19.25ZM16.4685 3.42333C16.4301 3.42336 16.3919 3.4286 16.3548 3.43892L13.8009 4.15071C13.7449 4.16625 13.6925 4.19311 13.6465 4.22976C13.6005 4.26641 13.5619 4.31212 13.533 4.36429C13.5037 4.41622 13.4848 4.47371 13.4772 4.53337C13.4696 4.59305 13.4736 4.65368 13.4889 4.71171L16.9105 17.9933C16.9255 18.0515 16.9514 18.106 16.9866 18.1537C17.0219 18.2015 17.0658 18.2415 17.1159 18.2716C17.1661 18.3017 17.2214 18.3212 17.2788 18.3291C17.3362 18.3369 17.3945 18.3329 17.4504 18.3173L20.0065 17.606C20.0625 17.5904 20.1149 17.5635 20.1609 17.5268C20.2068 17.4902 20.2453 17.4444 20.2743 17.3922C20.3032 17.34 20.322 17.2824 20.3295 17.2227C20.337 17.1629 20.3331 17.1022 20.3181 17.0441L16.8942 3.76296C16.8691 3.66551 16.8138 3.57941 16.7368 3.518C16.6598 3.4566 16.5655 3.42332 16.4685 3.42333Z" fill="#E9E9E9"/>
<path d="M14.796 6.70407C14.6892 6.70388 14.586 6.66332 14.5057 6.58994C14.4254 6.51656 14.3736 6.41536 14.3597 6.30513C14.3458 6.19495 14.371 6.08326 14.4304 5.99086C14.4899 5.8985 14.5795 5.83172 14.6828 5.80298L16.3857 5.32815C16.4417 5.31225 16.5001 5.30808 16.5577 5.31573C16.6153 5.32343 16.6708 5.34286 16.7212 5.37298C16.7715 5.40304 16.8156 5.44315 16.8509 5.49104C16.8863 5.53889 16.9123 5.59353 16.9273 5.65187C16.9423 5.71017 16.9461 5.77099 16.9384 5.83085C16.9308 5.89071 16.9118 5.94837 16.8826 6.00057C16.8535 6.05278 16.8147 6.09847 16.7685 6.13505C16.7223 6.17158 16.6696 6.1983 16.6135 6.21365L14.9111 6.68803C14.8736 6.69875 14.8349 6.70416 14.796 6.70407Z" fill="#E9E9E9"/>
<path d="M17.3058 16.4436C17.1989 16.4435 17.0957 16.4031 17.0153 16.3297C16.935 16.2564 16.883 16.1551 16.8691 16.0449C16.8552 15.9347 16.8803 15.8229 16.9398 15.7305C16.9992 15.6381 17.0889 15.5712 17.1921 15.5425L18.8946 15.0681C19.0075 15.0366 19.1278 15.0531 19.229 15.1139C19.3303 15.1746 19.4042 15.2747 19.4345 15.3922C19.4647 15.5096 19.4489 15.6347 19.3905 15.74C19.332 15.8453 19.2358 15.9221 19.1229 15.9536L17.4204 16.428C17.3831 16.4383 17.3445 16.4436 17.3058 16.4436Z" fill="#E9E9E9"/>
</g>
<defs>
<clipPath id="clip0_2060_230">
<rect width="21.1538" height="22" fill="white" transform="translate(0.5)"/>
</clipPath>
</defs>
</svg>
